<svg width="47" height="50" viewBox="0 0 47 50" fill="none" xmlns="http://www.w3.org/2000/svg">
<path d="M41.0147 24.6276L22.6499 0.135864H30.4323C33.8518 0.135864 34.4414 0.135864 38.6863 5.32684C39.5978 6.44141 43.8746 12.5234 45.0538 13.9391C46.8225 16.0627 46.8356 16.4167 45.6433 17.9504C44.983 18.7998 42.3511 22.622 41.0147 24.6276Z" fill="#A0F2EA"/>
<path d="M34.9672 16.5453L22.4209 33.2879H30.2033C33.6228 33.2879 34.2124 33.2879 38.4574 28.0952C38.8533 27.6109 39.8845 26.1886 41.0209 24.6187L34.9672 16.5453Z" fill="#67C4BA"/>
<path d="M5.45599 41.2038L23.8208 16.712H16.0384C12.6189 16.712 12.0293 16.712 7.78437 21.903C6.87293 23.0176 2.59611 29.0996 1.41695 30.5153C-0.351774 32.6389 -0.364874 32.9928 0.827379 34.5265C1.48771 35.376 4.11962 39.1982 5.45599 41.2038Z" fill="#A0F2EA"/>
<path d="M11.5035 33.1215L24.0498 49.864H16.2674C12.8479 49.864 12.2583 49.8641 8.01334 44.6714C7.61737 44.187 6.5862 42.7648 5.4498 41.1949L11.5035 33.1215Z" fill="#67C4BA"/>
</svg>
